<?xml version="1.0" encoding="utf-8"?>
<!-- Generator: Adobe Illustrator 16.0.0, SVG Export Plug-In . SVG Version: 6.00 Build 0)  -->
<!DOCTYPE svg PUBLIC "-//W3C//DTD SVG 1.1//EN" "http://www.w3.org/Graphics/SVG/1.1/DTD/svg11.dtd">
<svg version="1.1" id="Layer_1" xmlns="http://www.w3.org/2000/svg" xmlns:xlink="http://www.w3.org/1999/xlink" x="0px" y="0px"
	 width="512px" height="512px" viewBox="0 0 512 512" enable-background="new 0 0 512 512" xml:space="preserve">
<g>
	<g>
		<path fill-rule="evenodd" clip-rule="evenodd" fill="#BADCBE" d="M103.711,74.328h383.863c6.916,0,12.522,5.605,12.522,12.486
			v212.808c0,6.881-5.606,12.521-12.522,12.521H103.711c-6.917,0-12.521-5.64-12.521-12.521V86.814
			C91.189,79.934,96.793,74.328,103.711,74.328z"/>
	</g>
	<g>
		<path fill="#395A7C" d="M487.574,316.081H103.711c-9.063,0-16.442-7.377-16.442-16.459V86.814c0-9.046,7.378-16.405,16.442-16.405
			h383.863c9.062,0,16.442,7.359,16.442,16.405v212.808C504.016,308.704,496.636,316.081,487.574,316.081z M103.711,78.25
			c-4.735,0-8.602,3.849-8.602,8.564v212.808c0,4.754,3.867,8.583,8.602,8.583h383.863c4.735,0,8.601-3.829,8.601-8.583V86.814
			c0-4.715-3.866-8.564-8.601-8.564H103.711z"/>
	</g>
	<g>
		<rect x="117.973" y="89.866" fill-rule="evenodd" clip-rule="evenodd" fill="#499B5A" width="355.339" height="206.704"/>
	</g>
	<g>
		<path fill="#395A7C" d="M473.312,300.508H117.973c-2.165,0-3.92-1.773-3.92-3.938V89.866c0-2.165,1.755-3.918,3.92-3.918h355.339
			c2.164,0,3.921,1.753,3.921,3.918V296.57C477.233,298.734,475.476,300.508,473.312,300.508z M121.891,292.636h347.501V93.785
			H121.891V292.636z"/>
	</g>
	<g>
		<path fill-rule="evenodd" clip-rule="evenodd" fill="#BADCBE" d="M180.937,113.634h229.409c0,20.647,16.886,37.531,37.532,37.531
			v84.145c-20.646,0-37.532,16.884-37.532,37.531H180.937c0-20.647-16.885-37.531-37.53-37.531v-84.145
			C164.052,151.165,180.937,134.281,180.937,113.634z"/>
	</g>
	<g>
		<path fill="#395A7C" d="M410.346,276.76H180.937c-2.164,0-3.918-1.758-3.918-3.919c0-18.536-15.076-33.612-33.611-33.612
			c-2.164,0-3.921-1.757-3.921-3.919v-84.145c0-2.166,1.757-3.918,3.921-3.918c18.535,0,33.611-15.076,33.611-33.612
			c0-2.165,1.755-3.922,3.918-3.922h229.409c2.165,0,3.92,1.757,3.92,3.922c0,18.536,15.076,33.612,33.612,33.612
			c2.163,0,3.918,1.753,3.918,3.918v84.145c0,2.162-1.755,3.919-3.918,3.919c-18.536,0-33.612,15.076-33.612,33.612
			C414.267,275.002,412.511,276.76,410.346,276.76z M184.681,268.922h221.924c1.861-19.745,17.612-35.493,37.353-37.355v-76.658
			c-19.74-1.862-35.491-17.615-37.353-37.355H184.681c-1.862,19.74-17.612,35.493-37.353,37.355v76.658
			C167.068,233.429,182.819,249.177,184.681,268.922z"/>
	</g>
	<g>
		<path fill-rule="evenodd" clip-rule="evenodd" fill="#395A7C" d="M160.93,190.114h269.423v6.033H160.93V190.114z M183.208,169.258
			h224.868v6.064H183.208V169.258z M183.208,211.223h224.868v6.064H183.208V211.223z"/>
	</g>
	<g>
		<path fill-rule="evenodd" clip-rule="evenodd" fill="#499B5A" d="M295.66,129.88c34.979,0,63.321,28.344,63.321,63.355
			c0,34.98-28.342,63.32-63.321,63.32c-35.012,0-63.357-28.34-63.357-63.32C232.303,158.225,260.647,129.88,295.66,129.88z"/>
	</g>
	<g>
		<path fill="#395A7C" d="M295.66,260.479c-37.106,0-67.275-30.172-67.275-67.244c0-37.103,30.169-67.273,67.275-67.273
			c37.07,0,67.241,30.17,67.241,67.273C362.9,230.308,332.729,260.479,295.66,260.479z M295.66,133.8
			c-32.777,0-59.436,26.66-59.436,59.436c0,32.76,26.659,59.402,59.436,59.402c32.761,0,59.402-26.642,59.402-59.402
			C355.062,160.46,328.42,133.8,295.66,133.8z"/>
	</g>
	<g>
		<path fill="#395A7C" d="M299.35,217.785c2.519-0.567,4.576-1.737,6.173-3.619c1.596-1.842,2.413-4.042,2.413-6.562
			c0-2.236-0.675-4.187-2.023-5.82c-1.312-1.628-3.512-2.873-6.562-3.759V217.785z M292.041,164.041
			c-1.987,0.677-3.51,1.847-4.683,3.444c-1.135,1.629-1.738,3.406-1.738,5.354c0,1.742,0.533,3.405,1.561,4.934
			c1.065,1.523,2.696,2.768,4.86,3.724V164.041z M292.006,216.899l0.035-21.075c-6.563-1.877-11.387-4.75-14.402-8.548
			c-3.086-3.864-4.613-8.479-4.613-13.906c0-5.497,1.74-10.142,5.216-13.87c3.477-3.725,8.053-5.851,13.799-6.418v-4.969
			l7.343,0.035v4.968c5.393,0.638,9.648,2.485,12.842,5.497c3.157,3.018,5.178,7.061,6.03,12.099l-12.805,1.633
			c-0.78-3.973-2.803-6.671-6.067-8.09v19.69c8.088,2.197,13.622,5.034,16.532,8.514c2.944,3.476,4.398,7.946,4.398,13.408
			c0,6.065-1.844,11.173-5.534,15.324c-3.724,4.148-8.833,6.742-15.431,7.733v9.4l-7.344-0.035v-9.294
			c-5.783-0.708-10.465-2.873-14.118-6.493c-3.619-3.58-5.924-8.688-6.953-15.25l13.124-1.528c0.533,2.698,1.561,5.003,3.052,6.955
			C288.565,214.629,290.196,216.048,292.006,216.899z"/>
	</g>
	<g>
		<path fill-rule="evenodd" clip-rule="evenodd" fill="#F4E597" d="M251.248,417.111c47.783,0,86.521-10.82,86.521-24.191
			c0-13.34-38.737-24.192-86.521-24.192c-47.749,0-86.487,10.853-86.487,24.192C164.761,406.291,203.499,417.111,251.248,417.111z"
			/>
	</g>
	<g>
		<path fill="#395A7C" d="M251.248,421.05c-44.929,0-90.405-9.685-90.405-28.13c0-18.446,45.476-28.131,90.405-28.131
			c44.945,0,90.439,9.685,90.439,28.131C341.687,411.365,296.192,421.05,251.248,421.05z M251.248,372.666
			c-50.408,0-82.566,11.987-82.566,20.254c0,8.265,32.158,20.253,82.566,20.253c50.425,0,82.6-11.988,82.6-20.253
			C333.847,384.653,301.672,372.666,251.248,372.666z"/>
	</g>
	<g>
		<path fill-rule="evenodd" clip-rule="evenodd" fill="#D1C476" d="M251.459,412.928c42.392,0,76.767-8.941,76.767-20.008
			c0-11.035-34.375-20.007-76.767-20.007c-42.427,0-76.801,8.972-76.801,20.007C174.658,403.986,209.032,412.928,251.459,412.928"/>
	</g>
	<g>
		<path fill-rule="evenodd" clip-rule="evenodd" fill="#D1C476" d="M337.768,392.92c0,13.371-38.737,24.191-86.521,24.191
			c-47.749,0-86.487-10.82-86.487-24.191v20.537c0,13.377,38.738,24.195,86.487,24.195c47.783,0,86.521-10.818,86.521-24.195V392.92
			z"/>
	</g>
	<g>
		<path fill="#395A7C" d="M251.248,441.591c-44.929,0-90.405-9.688-90.405-28.134V392.92h7.839c0,8.265,32.158,20.253,82.566,20.253
			c50.425,0,82.6-11.988,82.6-20.253h7.839v20.537C341.687,431.902,296.192,441.591,251.248,441.591z M168.682,405.121v8.336
			c0,8.269,32.158,20.258,82.566,20.258c50.425,0,82.6-11.989,82.6-20.258v-8.336C304.032,426.121,198.532,426.121,168.682,405.121z
			"/>
	</g>
	<g>
		<path fill="#395A7C" d="M278.81,401.682c3.797-0.604,6.101-1.524,6.953-2.769c0.886-1.239,0-2.52-2.589-3.902
			c-2.235-1.171-4.967-2.021-8.302-2.515c-3.263-0.533-8.23-0.713-14.899-0.568c3.121,1.594,6.243,3.261,9.365,4.895
			C272.459,398.416,275.618,400.049,278.81,401.682 M228.935,379.651c-3.938,0.567-6.35,1.383-7.236,2.448
			c-0.889,1.065-0.214,2.166,1.949,3.301c2.201,1.135,5.038,1.986,8.585,2.554c3.547,0.568,8.195,0.777,13.906,0.708
			c-2.873-1.488-5.711-3.017-8.548-4.507C234.715,382.667,231.808,381.143,228.935,379.651z M285.904,408.208
			c-3.191-0.956-5.534-2.021-7.804-3.121c-5.675,0.389-10.712,0.497-15.076,0.318c-4.398-0.14-9.011-0.708-13.835-1.668
			c-4.787-0.921-9.117-2.234-12.912-3.938c3.193-0.568,6.385-1.17,9.543-1.738c4.328,1.703,8.372,2.873,12.131,3.476
			c5.285,0.852,10.181,1.136,14.615,0.817c-3.371-1.703-6.739-3.441-10.075-5.144c-3.298-1.703-6.597-3.44-9.898-5.179
			c-5.144,0.105-10.784-0.035-16.99-0.354c-4.613-0.247-8.87-0.815-12.771-1.702c-3.938-0.886-7.167-1.986-9.756-3.301
			c-4.541-2.374-5.464-4.54-2.696-6.491c0.921-0.673,2.482-1.241,4.683-1.809c2.199-0.497,5.037-0.994,8.513-1.418
			c-1.065-0.533-2.163-1.03-3.619-1.528c2.166-0.175,4.364-0.354,6.564-0.528c1.489,0.458,2.589,0.957,3.652,1.488
			c3.406-0.179,6.706-0.248,9.827-0.179c3.122,0.035,6.102,0.249,8.903,0.533c7.166,0.746,13.196,2.091,18.021,4.043
			c-3.476,0.496-6.916,1.029-10.428,1.526c-3.052-1.208-6.315-2.094-9.721-2.588c-3.369-0.498-7.095-0.711-11.172-0.606
			c3.014,1.563,6.064,3.121,9.044,4.685c2.945,1.598,5.925,3.156,8.904,4.72c6.279-0.109,10.536-0.145,12.736-0.074
			c4.223,0.109,7.981,0.392,11.28,0.781c3.336,0.428,6.351,0.995,9.118,1.772c2.696,0.712,5.037,1.599,6.916,2.59
			c4.152,2.2,5.392,4.33,3.727,6.352c-0.852,1.026-2.377,1.878-4.541,2.623c-2.166,0.747-5.003,1.35-8.55,1.808
			c2.27,1.102,4.612,2.167,7.875,3.122C290.02,407.746,287.963,407.994,285.904,408.208z"/>
	</g>
	<g>
		<path fill-rule="evenodd" clip-rule="evenodd" fill="#FBC959" d="M131.453,340.667c47.781,0,86.484-10.819,86.484-24.192
			c0-13.338-38.703-24.197-86.484-24.197c-47.784,0-86.521,10.859-86.521,24.197C44.932,329.848,83.669,340.667,131.453,340.667z"/>
	</g>
	<g>
		<path fill="#395A7C" d="M131.453,344.604c-44.946,0-90.442-9.684-90.442-28.13c0-18.447,45.496-28.114,90.442-28.114
			c44.926,0,90.404,9.667,90.404,28.114C221.857,334.921,176.379,344.604,131.453,344.604z M131.453,296.216
			c-50.428,0-82.603,11.989-82.603,20.259c0,8.264,32.175,20.254,82.603,20.254c51.152,0,82.565-11.779,82.565-20.254
			C214.019,308.205,181.86,296.216,131.453,296.216z"/>
	</g>
	<g>
		<path fill-rule="evenodd" clip-rule="evenodd" fill="#F3BE53" d="M131.63,336.479c42.426,0,76.8-8.937,76.8-20.004
			c0-11.033-34.374-20.009-76.8-20.009c-42.392,0-76.8,8.976-76.8,20.009C54.83,327.542,89.238,336.479,131.63,336.479z"/>
	</g>
	<g>
		<path fill="#395A7C" d="M131.63,340.417c-40.122,0-80.721-8.229-80.721-23.942c0-31.431,161.441-31.431,161.441,0
			C212.351,332.188,171.751,340.417,131.63,340.417z M131.63,300.403c-47.164,0-72.882,10.605-72.882,16.071
			c0,5.462,25.718,16.067,72.882,16.067c47.161,0,72.881-10.605,72.881-16.067C204.511,311.009,178.791,300.403,131.63,300.403z"/>
	</g>
	<g>
		<path fill-rule="evenodd" clip-rule="evenodd" fill="#D1C476" d="M217.937,316.475c0,13.373-38.703,24.192-86.484,24.192
			c-47.784,0-86.521-10.819-86.521-24.192v20.537c0,13.339,38.737,24.192,86.521,24.192c47.781,0,86.484-10.854,86.484-24.192
			V316.475z"/>
	</g>
	<g>
		<path fill="#395A7C" d="M131.453,365.143c-44.946,0-90.442-9.684-90.442-28.131v-20.537h7.84c0,8.264,32.175,20.254,82.603,20.254
			c51.152,0,82.565-11.779,82.565-20.254h7.839v20.537C221.857,355.459,176.379,365.143,131.453,365.143z M48.851,328.677v8.335
			c0,8.266,32.175,20.255,82.603,20.255c50.407,0,82.565-11.989,82.565-20.255v-8.335
			C184.183,349.713,78.686,349.713,48.851,328.677z"/>
	</g>
	<g>
		<path fill="#D5A74B" d="M158.98,325.233c3.794-0.604,6.102-1.524,6.988-2.765c0.887-1.209,0-2.52-2.625-3.903
			c-2.233-1.17-4.966-2.021-8.265-2.52c-3.299-0.532-8.265-0.706-14.899-0.567c3.086,1.633,6.208,3.267,9.33,4.895
			C152.63,321.971,155.787,323.604,158.98,325.233z M109.139,303.206c-3.973,0.567-6.386,1.384-7.237,2.445
			c-0.886,1.064-0.247,2.13,1.952,3.301c2.163,1.136,5.001,1.985,8.548,2.554c3.547,0.567,8.195,0.782,13.906,0.712
			c-2.838-1.492-5.711-3.017-8.549-4.506C114.887,306.219,112.014,304.695,109.139,303.206z M166.075,331.76
			c-3.193-0.956-5.534-2.021-7.804-3.083c-5.677,0.354-10.714,0.46-15.078,0.319c-4.399-0.179-9.009-0.747-13.799-1.667
			c-4.825-0.961-9.117-2.271-12.948-3.974c3.229-0.567,6.386-1.135,9.577-1.737c4.329,1.703,8.337,2.873,12.098,3.475
			c5.285,0.852,10.18,1.136,14.615,0.816c-3.371-1.703-6.741-3.44-10.04-5.143c-3.335-1.702-6.599-3.44-9.933-5.144
			c-5.108,0.069-10.784-0.074-16.992-0.393c-4.576-0.25-8.868-0.816-12.77-1.703c-3.938-0.887-7.166-1.986-9.719-3.297
			c-4.578-2.378-5.464-4.539-2.733-6.492c0.924-0.642,2.484-1.243,4.683-1.776c2.201-0.567,5.038-1.025,8.514-1.454
			c-1.063-0.531-2.164-1.026-3.583-1.523c2.163-0.178,4.329-0.354,6.527-0.532c1.491,0.463,2.626,0.956,3.654,1.489
			c3.406-0.176,6.705-0.25,9.826-0.176c3.122,0.034,6.102,0.211,8.904,0.533c7.165,0.742,13.197,2.092,18.057,4.043
			c-3.476,0.497-6.953,1.026-10.429,1.523c-3.052-1.204-6.315-2.092-9.721-2.589c-3.405-0.499-7.13-0.708-11.21-0.604
			c3.015,1.561,6.066,3.123,9.046,4.72c2.979,1.56,5.924,3.122,8.939,4.681c6.278-0.105,10.501-0.14,12.699-0.07
			c4.257,0.104,7.983,0.39,11.317,0.782c3.299,0.424,6.315,0.99,9.081,1.737c2.731,0.742,5.039,1.629,6.917,2.625
			c4.185,2.2,5.428,4.326,3.725,6.348c-0.852,1.03-2.34,1.881-4.505,2.628c-2.164,0.742-5.037,1.346-8.583,1.808
			c2.27,1.101,4.647,2.165,7.874,3.122C170.225,331.303,168.167,331.551,166.075,331.76z"/>
	</g>
	<g>
		<path fill="#395A7C" d="M165.702,335.733l-0.762-0.211c-2.962-0.886-5.25-1.882-7.433-2.872
			c-5.392,0.318-10.234,0.354-14.436,0.283c-4.541-0.213-9.385-0.781-14.421-1.741c-5.18-1.026-9.684-2.41-13.799-4.256
			l-11.742-5.214l12.664-2.235c0.48-0.07,0.976-0.176,1.474-0.249c-0.568-0.035-1.118-0.069-1.668-0.105
			c-4.842-0.249-9.365-0.851-13.445-1.771c-4.275-0.961-7.752-2.166-10.642-3.655c-2.626-1.349-6.137-3.584-6.386-7.272
			c-0.089-1.275,0.194-3.761,3.157-5.891c0.516-0.354,1.083-0.673,1.72-0.956l-8.548-3.017l25.701-2.092l0.708,0.213
			c1.295,0.424,2.361,0.852,3.319,1.276c2.233-0.106,4.433-0.14,6.562-0.14h2.537c3.209,0.033,6.331,0.248,9.259,0.566
			c7.468,0.782,13.905,2.235,19.066,4.293l13.587,5.462l-13.87,1.986c3.671,0.145,6.952,0.392,9.932,0.746
			c3.602,0.46,6.759,1.066,9.649,1.844c2.945,0.815,5.553,1.811,7.717,2.945c2.447,1.274,5.763,3.405,6.438,6.847
			c0.373,1.916-0.159,3.865-1.543,5.496c-0.762,0.961-1.773,1.738-3.084,2.45l14.134,4.222l-18.782,2.271
			c-2.094,0.248-4.169,0.493-6.298,0.707L165.702,335.733z"/>
	</g>
	<g>
		<path fill-rule="evenodd" clip-rule="evenodd" fill="#FBC959" d="M131.453,317.645c47.781,0,86.484-10.819,86.484-24.196
			c0-13.337-38.703-24.156-86.484-24.156c-47.784,0-86.521,10.819-86.521,24.156C44.932,306.825,83.669,317.645,131.453,317.645z"/>
	</g>
	<g>
		<path fill="#395A7C" d="M131.453,321.583c-44.946,0-90.442-9.688-90.442-28.135c0-18.427,45.496-28.075,90.442-28.075
			c44.926,0,90.404,9.648,90.404,28.075C221.857,311.896,176.379,321.583,131.453,321.583z M131.453,273.214
			c-50.428,0-82.603,11.989-82.603,20.234c0,8.27,32.175,20.258,82.603,20.258c51.152,0,82.565-11.779,82.565-20.258
			C214.019,285.203,181.86,273.214,131.453,273.214z"/>
	</g>
	<g>
		<path fill-rule="evenodd" clip-rule="evenodd" fill="#D1C476" d="M131.63,313.492c42.426,0,76.8-8.977,76.8-20.044
			c0-11.029-34.374-20.005-76.8-20.005c-42.392,0-76.8,8.976-76.8,20.005C54.83,304.516,89.238,313.492,131.63,313.492z"/>
	</g>
	<g>
		<path fill="#395A7C" d="M131.63,317.431c-40.122,0-80.721-8.229-80.721-23.982c0-31.427,161.441-31.427,161.441,0
			C212.351,309.201,171.751,317.431,131.63,317.431z M131.63,277.362c-47.164,0-72.882,10.625-72.882,16.086
			c0,5.467,25.718,16.106,72.882,16.106c47.161,0,72.881-10.64,72.881-16.106C204.511,287.987,178.791,277.362,131.63,277.362z"/>
	</g>
	<g>
		<path fill-rule="evenodd" clip-rule="evenodd" fill="#D1C476" d="M217.937,293.448c0,13.377-38.703,24.196-86.484,24.196
			c-47.784,0-86.521-10.819-86.521-24.196v20.542c0,13.374,38.737,24.191,86.521,24.191c47.781,0,86.484-10.817,86.484-24.191
			V293.448z"/>
	</g>
	<g>
		<path fill="#395A7C" d="M131.453,342.12c-44.946,0-90.442-9.683-90.442-28.13v-20.542h7.84c0,8.27,32.175,20.258,82.603,20.258
			c51.152,0,82.565-11.779,82.565-20.258h7.839v20.542C221.857,332.438,176.379,342.12,131.453,342.12z M48.851,305.651v8.339
			c0,8.266,32.175,20.254,82.603,20.254c51.152,0,82.565-11.775,82.565-20.254v-8.339
			C184.183,326.691,78.686,326.691,48.851,305.651z"/>
	</g>
	<g>
		<path fill="#395A7C" d="M158.98,302.211c3.794-0.604,6.102-1.523,6.988-2.764c0.887-1.209,0-2.521-2.625-3.904
			c-2.233-1.17-4.966-2.021-8.265-2.518c-3.299-0.533-8.265-0.713-14.899-0.568c3.086,1.633,6.208,3.262,9.33,4.894
			C152.63,298.984,155.787,300.583,158.98,302.211 M109.139,280.22c-3.973,0.532-6.386,1.384-7.237,2.41
			c-0.886,1.065-0.247,2.165,1.952,3.3c2.163,1.136,5.001,1.987,8.548,2.555s8.195,0.781,13.906,0.708
			c-2.838-1.489-5.711-3.013-8.549-4.503C114.887,283.197,112.014,281.708,109.139,280.22z M166.075,308.773
			c-3.193-0.992-5.534-2.058-7.804-3.122c-5.677,0.358-10.714,0.463-15.078,0.323c-4.399-0.179-9.009-0.747-13.799-1.703
			c-4.825-0.926-9.117-2.235-12.948-3.938c3.229-0.567,6.386-1.135,9.577-1.737c4.329,1.737,8.337,2.873,12.098,3.476
			c5.285,0.852,10.18,1.135,14.615,0.816c-3.371-1.703-6.741-3.406-10.04-5.143c-3.335-1.703-6.599-3.445-9.933-5.183
			c-5.108,0.108-10.784,0-16.992-0.354c-4.576-0.249-8.868-0.815-12.77-1.703c-3.938-0.851-7.166-1.95-9.719-3.3
			c-4.578-2.374-5.464-4.54-2.733-6.488c0.924-0.642,2.484-1.244,4.683-1.777c2.201-0.531,5.038-1.024,8.514-1.453
			c-1.063-0.532-2.164-1.026-3.583-1.524c2.163-0.178,4.329-0.354,6.527-0.532c1.491,0.463,2.626,0.991,3.654,1.489
			c3.406-0.175,6.705-0.249,9.826-0.175c3.122,0.034,6.102,0.244,8.904,0.529c7.165,0.746,13.197,2.095,18.057,4.047
			c-3.476,0.492-6.953,1.025-10.429,1.522c-3.052-1.204-6.315-2.091-9.721-2.588c-3.405-0.498-7.13-0.712-11.21-0.604
			c3.015,1.56,6.066,3.122,9.046,4.716c2.979,1.563,5.924,3.122,8.939,4.685c6.278-0.104,10.501-0.144,12.699-0.07
			c4.257,0.105,7.983,0.389,11.317,0.777c3.299,0.429,6.315,1.03,9.081,1.741c2.731,0.742,5.039,1.63,6.917,2.625
			c4.185,2.2,5.428,4.327,3.725,6.348c-0.852,1.03-2.34,1.882-4.505,2.624c-2.164,0.747-5.037,1.35-8.583,1.812
			c2.27,1.102,4.647,2.162,7.874,3.123C170.225,308.28,168.167,308.527,166.075,308.773z"/>
	</g>
	<g>
		<path fill-rule="evenodd" clip-rule="evenodd" fill="#F4E597" d="M98.391,272.945c47.782,0,86.519-10.854,86.519-24.192
			s-38.737-24.192-86.519-24.192c-47.784,0-86.486,10.854-86.486,24.192S50.607,272.945,98.391,272.945z"/>
	</g>
	<g>
		<path fill="#395A7C" d="M98.391,276.868c-44.929,0-90.406-9.649-90.406-28.115s45.478-28.115,90.406-28.115
			c44.944,0,90.439,9.649,90.439,28.115S143.335,276.868,98.391,276.868z M98.391,228.48c-50.41,0-82.565,12.009-82.565,20.273
			c0,8.266,32.155,20.273,82.565,20.273c50.425,0,82.601-12.007,82.601-20.273C180.992,240.489,148.816,228.48,98.391,228.48z"/>
	</g>
	<g>
		<path fill-rule="evenodd" clip-rule="evenodd" fill="#D1C476" d="M98.568,268.759c42.426,0,76.8-8.972,76.8-20.005
			c0-11.033-34.374-20.009-76.8-20.009c-42.392,0-76.766,8.977-76.766,20.009C21.803,259.787,56.177,268.759,98.568,268.759"/>
	</g>
	<g>
		<path fill-rule="evenodd" clip-rule="evenodd" fill="#D1C476" d="M184.91,248.753c0,13.338-38.737,24.192-86.519,24.192
			c-47.784,0-86.486-10.854-86.486-24.192v20.539c0,13.338,38.702,24.156,86.486,24.156c47.782,0,86.519-10.818,86.519-24.156
			V248.753z"/>
	</g>
	<g>
		<path fill="#395A7C" d="M98.391,297.386c-44.929,0-90.406-9.663-90.406-28.094v-20.539h7.841c0,8.266,32.155,20.273,82.565,20.273
			c50.425,0,82.601-12.007,82.601-20.273h7.839v20.539C188.831,287.723,143.335,297.386,98.391,297.386z M15.826,260.957v8.335
			c0,8.249,32.155,20.238,82.565,20.238c50.425,0,82.601-11.989,82.601-20.238v-8.335
			C151.158,281.923,45.659,281.923,15.826,260.957z"/>
	</g>
	<g>
		<path fill="#D5A74B" d="M125.954,257.517c3.759-0.638,6.066-1.563,6.953-2.769c0.886-1.239,0-2.554-2.626-3.903
			c-2.233-1.17-4.966-2.021-8.265-2.554c-3.298-0.494-8.265-0.673-14.899-0.568c3.087,1.633,6.208,3.266,9.33,4.899
			C119.604,254.251,122.76,255.883,125.954,257.517z M76.077,235.486c-3.936,0.566-6.385,1.383-7.236,2.448
			c-0.887,1.065-0.247,2.126,1.952,3.262c2.163,1.135,5.038,2.021,8.585,2.554c3.511,0.568,8.159,0.816,13.906,0.747
			c-2.875-1.524-5.748-3.017-8.585-4.506C81.825,238.502,78.952,236.975,76.077,235.486z M133.014,264.044
			c-3.193-0.996-5.534-2.022-7.804-3.122c-5.676,0.388-10.714,0.497-15.078,0.318c-4.398-0.178-9.009-0.746-13.799-1.667
			c-4.824-0.956-9.116-2.271-12.912-3.974c3.193-0.567,6.35-1.135,9.542-1.703c4.329,1.703,8.372,2.873,12.098,3.474
			c5.285,0.853,10.18,1.137,14.615,0.818c-3.37-1.738-6.706-3.441-10.04-5.179c-3.335-1.703-6.599-3.406-9.897-5.144
			c-5.143,0.105-10.819-0.035-17.027-0.354c-4.576-0.249-8.867-0.816-12.771-1.703c-3.938-0.89-7.165-1.986-9.719-3.3
			c-4.578-2.375-5.464-4.542-2.696-6.493c0.922-0.672,2.448-1.24,4.683-1.808c2.164-0.532,5.037-0.995,8.477-1.419
			c-1.063-0.532-2.164-1.064-3.583-1.527c2.164-0.175,4.364-0.389,6.527-0.567c1.491,0.498,2.626,0.995,3.654,1.527
			c3.441-0.179,6.704-0.249,9.826-0.179c3.157,0.035,6.102,0.214,8.905,0.532c7.165,0.747,13.196,2.092,18.056,4.043
			c-3.476,0.497-6.953,0.995-10.428,1.528c-3.052-1.245-6.316-2.096-9.721-2.593c-3.406-0.494-7.13-0.708-11.175-0.603
			c3.017,1.563,6.032,3.121,9.011,4.685c2.98,1.559,5.959,3.156,8.939,4.715c6.278-0.104,10.5-0.14,12.699-0.069
			c4.257,0.109,8.018,0.354,11.316,0.781c3.299,0.424,6.315,0.991,9.082,1.737c2.731,0.747,5.039,1.633,6.953,2.624
			c4.15,2.166,5.392,4.292,3.689,6.352c-0.816,0.992-2.34,1.878-4.505,2.625c-2.164,0.707-5.037,1.313-8.584,1.772
			c2.27,1.101,4.648,2.2,7.911,3.157C137.164,263.546,135.105,263.794,133.014,264.044z"/>
	</g>
	<g>
		<path fill="#395A7C" d="M133.297,267.962l-1.456-0.176c-3.085-0.959-5.392-1.935-7.396-2.876
			c-5.444,0.323-10.286,0.408-14.473,0.25c-4.506-0.176-9.348-0.764-14.384-1.738c-5.215-1.026-9.703-2.41-13.781-4.238
			l-11.618-5.217l13.851-2.465c-0.512-0.016-1.027-0.055-1.523-0.07c-4.842-0.269-9.365-0.871-13.445-1.792
			c-4.274-0.975-7.751-2.165-10.642-3.635c-2.626-1.368-6.137-3.6-6.386-7.289c-0.107-1.578,0.374-3.888,3.229-5.909
			c0.389-0.284,0.851-0.567,1.364-0.816l-9.348-3.032l26.818-2.235l0.764,0.249c1.259,0.428,2.305,0.852,3.229,1.279
			c2.271-0.109,4.451-0.159,6.563-0.159l2.536,0.035c3.247,0.035,6.331,0.214,9.258,0.548c7.468,0.781,13.906,2.235,19.067,4.312
			l13.586,5.446l-13.851,1.986c3.669,0.125,6.987,0.369,9.95,0.762c3.565,0.458,6.721,1.065,9.612,1.827
			c2.91,0.797,5.517,1.792,7.734,2.943c2.43,1.259,5.729,3.335,6.42,6.794c0.391,1.914-0.16,3.884-1.526,5.532
			c-0.762,0.922-1.773,1.738-3.085,2.466l15.218,4.471L133.297,267.962z"/>
	</g>
	<g>
		<path fill-rule="evenodd" clip-rule="evenodd" fill="#FBC959" d="M141.632,249.605c47.783,0,86.521-10.854,86.521-24.227
			c0-13.339-38.737-24.162-86.521-24.162c-47.782,0-86.519,10.823-86.519,24.162C55.113,238.751,93.851,249.605,141.632,249.605z"/>
	</g>
	<g>
		<path fill="#395A7C" d="M141.632,253.523c-44.944,0-90.439-9.664-90.439-28.145c0-18.432,45.496-28.081,90.439-28.081
			c44.945,0,90.441,9.649,90.441,28.081C232.074,243.859,186.578,253.523,141.632,253.523z M141.632,205.139
			c-50.425,0-82.6,11.989-82.6,20.239c0,8.28,32.175,20.308,82.6,20.308c50.427,0,82.603-12.028,82.603-20.308
			C224.235,217.128,192.06,205.139,141.632,205.139z"/>
	</g>
	<g>
		<path fill-rule="evenodd" clip-rule="evenodd" fill="#F3BE53" d="M141.811,245.418c42.427,0,76.8-8.972,76.8-20.04
			c0-11.033-34.373-20.01-76.8-20.01c-42.391,0-76.802,8.977-76.802,20.01C65.009,236.446,99.42,245.418,141.811,245.418z"/>
	</g>
	<g>
		<path fill="#395A7C" d="M141.811,249.34c-40.122,0-80.72-8.229-80.72-23.962c0-31.431,161.441-31.431,161.441,0
			C222.532,241.111,181.931,249.34,141.811,249.34z M141.811,209.287c-47.164,0-72.881,10.625-72.881,16.091
			c0,5.461,25.718,16.121,72.881,16.121c47.162,0,72.88-10.66,72.88-16.121C214.691,219.912,188.973,209.287,141.811,209.287z"/>
	</g>
	<g>
		<path fill-rule="evenodd" clip-rule="evenodd" fill="#D1C476" d="M228.153,225.378c0,13.373-38.737,24.227-86.521,24.227
			c-47.782,0-86.519-10.854-86.519-24.227v20.537c0,13.339,38.737,24.192,86.519,24.192c47.783,0,86.521-10.853,86.521-24.192
			V225.378z"/>
	</g>
	<g>
		<path fill="#395A7C" d="M141.632,274.03c-44.944,0-90.439-9.649-90.439-28.115v-20.537h7.839c0,8.28,32.175,20.308,82.6,20.308
			c50.427,0,82.603-12.028,82.603-20.308h7.839v20.537C232.074,264.381,186.578,274.03,141.632,274.03z M59.032,237.596v8.319
			c0,8.265,32.175,20.274,82.6,20.274c50.427,0,82.603-12.009,82.603-20.274v-8.319C194.4,258.596,88.865,258.596,59.032,237.596z"
			/>
	</g>
	<g>
		<path fill="#D5A74B" d="M169.16,234.137c3.832-0.603,6.102-1.523,6.99-2.765c0.887-1.208,0-2.519-2.626-3.903
			c-2.235-1.17-4.966-2.021-8.265-2.519c-3.264-0.533-8.265-0.708-14.899-0.568c3.086,1.633,6.208,3.266,9.33,4.895
			C162.847,230.91,166.003,232.542,169.16,234.137z M119.32,212.11c-3.938,0.567-6.385,1.418-7.237,2.445
			c-0.886,1.065-0.249,2.166,1.952,3.301c2.163,1.135,5.036,1.986,8.583,2.554c3.512,0.567,8.16,0.815,13.87,0.711
			c-2.837-1.493-5.71-3.017-8.548-4.506C125.103,215.123,122.193,213.634,119.32,212.11z M176.254,240.703
			c-3.191-0.996-5.533-2.061-7.804-3.122c-5.676,0.388-10.677,0.458-15.076,0.319c-4.398-0.179-8.975-0.747-13.798-1.668
			c-4.825-0.96-9.117-2.271-12.948-3.973c3.227-0.567,6.42-1.135,9.577-1.703c4.329,1.703,8.336,2.838,12.096,3.476
			c5.287,0.851,10.182,1.101,14.615,0.817c-3.369-1.738-6.739-3.441-10.038-5.178c-3.3-1.703-6.598-3.406-9.897-5.143
			c-5.143,0.069-10.819-0.04-17.027-0.393c-4.576-0.249-8.833-0.816-12.771-1.702c-3.938-0.852-7.167-1.952-9.721-3.297
			c-4.575-2.379-5.461-4.541-2.696-6.492c0.923-0.642,2.449-1.244,4.647-1.776c2.235-0.529,5.073-1.027,8.514-1.454
			c-1.028-0.533-2.164-1.027-3.583-1.524c2.164-0.179,4.327-0.354,6.528-0.532c1.489,0.462,2.624,0.995,3.654,1.489
			c3.44-0.175,6.704-0.25,9.826-0.175c3.122,0.07,6.136,0.249,8.939,0.532c7.13,0.743,13.161,2.126,18.021,4.043
			c-3.477,0.498-6.953,1.027-10.43,1.524c-3.05-1.205-6.313-2.091-9.719-2.589c-3.406-0.498-7.129-0.672-11.209-0.602
			c3.05,1.559,6.066,3.156,9.046,4.72c2.98,1.559,5.959,3.121,8.939,4.681c6.279-0.106,10.5-0.106,12.733-0.071
			c4.222,0.105,7.947,0.39,11.282,0.816c3.298,0.389,6.313,0.992,9.082,1.738c2.731,0.707,5.036,1.594,6.953,2.589
			c4.15,2.201,5.392,4.327,3.689,6.349c-0.817,1.03-2.342,1.881-4.505,2.628c-2.164,0.743-5.037,1.344-8.584,1.808
			c2.271,1.1,4.646,2.166,7.875,3.156C180.406,240.205,178.348,240.454,176.254,240.703z"/>
	</g>
	<g>
		<path fill="#395A7C" d="M176.61,244.602l-1.526-0.16c-2.962-0.921-5.232-1.897-7.378-2.889
			c-5.409,0.335-10.217,0.424-14.456,0.265c-4.559-0.18-9.258-0.747-14.419-1.738c-5.18-1.03-9.686-2.414-13.801-4.242l-11.74-5.212
			l14.083-2.484c-0.55-0.036-1.083-0.05-1.65-0.086c-4.753-0.268-9.276-0.87-13.408-1.792c-4.275-0.925-7.769-2.13-10.679-3.654
			c-2.589-1.349-6.101-3.584-6.348-7.274c-0.107-1.578,0.371-3.883,3.227-5.904c0.48-0.338,1.048-0.657,1.668-0.941l-8.566-2.997
			l25.701-2.111l0.709,0.23c1.295,0.392,2.342,0.835,3.281,1.259c2.271-0.105,4.471-0.159,6.599-0.159l2.537,0.035
			c3.227,0.073,6.349,0.248,9.241,0.552c7.378,0.762,13.781,2.216,19.066,4.292l13.799,5.446l-14.065,2.002
			c3.688,0.144,6.987,0.408,9.967,0.801c3.263,0.369,6.509,0.991,9.613,1.823c2.838,0.747,5.464,1.722,7.734,2.911
			c2.448,1.294,5.764,3.406,6.421,6.862c0.373,1.917-0.177,3.868-1.544,5.481c-0.744,0.941-1.792,1.772-3.174,2.519l14.543,4.471
			L176.61,244.602z"/>
	</g>
	<g>
		<path fill-rule="evenodd" clip-rule="evenodd" fill="#F4E597" d="M141.632,224.95c47.783,0,86.521-10.854,86.521-24.228
			c0-13.338-38.737-24.157-86.521-24.157c-47.782,0-86.519,10.819-86.519,24.157C55.113,214.096,93.851,224.95,141.632,224.95z"/>
	</g>
	<g>
		<path fill="#395A7C" d="M141.632,228.869c-44.944,0-90.439-9.665-90.439-28.146c0-18.431,45.496-28.08,90.439-28.08
			c44.945,0,90.441,9.649,90.441,28.08C232.074,219.204,186.578,228.869,141.632,228.869z M141.632,180.484
			c-50.425,0-82.6,11.989-82.6,20.238c0,8.281,32.175,20.309,82.6,20.309c50.427,0,82.603-12.027,82.603-20.309
			C224.235,192.474,192.06,180.484,141.632,180.484z"/>
	</g>
	<g>
		<path fill-rule="evenodd" clip-rule="evenodd" fill="#D1C476" d="M141.811,220.764c42.427,0,76.8-8.973,76.8-20.041
			c0-11.033-34.373-19.973-76.8-19.973c-42.391,0-76.802,8.94-76.802,19.973C65.009,211.791,99.42,220.764,141.811,220.764"/>
	</g>
	<g>
		<path fill-rule="evenodd" clip-rule="evenodd" fill="#D1C476" d="M228.153,200.723c0,13.374-38.737,24.228-86.521,24.228
			c-47.782,0-86.519-10.854-86.519-24.228v20.538c0,13.374,38.737,24.193,86.519,24.193c47.783,0,86.521-10.819,86.521-24.193
			V200.723z"/>
	</g>
	<g>
		<path fill="#395A7C" d="M141.632,249.375c-44.944,0-90.439-9.649-90.439-28.115v-20.538h7.839c0,8.281,32.175,20.309,82.6,20.309
			c50.427,0,82.603-12.027,82.603-20.309h7.839v20.538C232.074,239.727,186.578,249.375,141.632,249.375z M59.032,212.942v8.319
			c0,8.265,32.175,20.273,82.6,20.273c50.427,0,82.603-12.008,82.603-20.273v-8.319C194.4,233.942,88.865,233.942,59.032,212.942z"
			/>
	</g>
	<g>
		<path fill="#395A7C" d="M169.16,209.486c3.832-0.606,6.102-1.528,6.99-2.768c0.887-1.206,0-2.519-2.626-3.903
			c-2.235-1.169-4.966-2.021-8.265-2.519c-3.264-0.498-8.265-0.708-14.899-0.567c3.086,1.632,6.208,3.265,9.33,4.894
			C162.847,206.255,166.003,207.888,169.16,209.486 M119.32,187.49c-3.938,0.568-6.385,1.384-7.237,2.414
			c-0.886,1.061-0.249,2.162,1.952,3.297c2.163,1.135,5.036,1.987,8.583,2.554c3.512,0.568,8.16,0.816,13.87,0.711
			c-2.837-1.493-5.71-3.017-8.548-4.505C125.103,190.472,122.193,188.979,119.32,187.49z M176.254,216.048
			c-3.191-0.96-5.533-2.061-7.804-3.122c-5.676,0.389-10.677,0.494-15.076,0.319c-4.398-0.179-8.975-0.747-13.798-1.667
			c-4.825-0.956-9.117-2.271-12.948-3.973c3.227-0.567,6.42-1.136,9.577-1.703c4.329,1.703,8.336,2.838,12.096,3.476
			c5.287,0.852,10.182,1.101,14.615,0.816c-3.369-1.738-6.739-3.44-10.038-5.178c-3.3-1.703-6.598-3.405-9.897-5.144
			c-5.143,0.07-10.819-0.034-17.027-0.392c-4.576-0.249-8.833-0.816-12.771-1.668c-3.938-0.887-7.167-1.987-9.721-3.332
			c-4.575-2.379-5.461-4.54-2.696-6.492c0.923-0.638,2.449-1.244,4.647-1.772c2.235-0.533,5.073-1.03,8.514-1.458
			c-1.028-0.529-2.164-1.027-3.583-1.524c2.164-0.179,4.327-0.354,6.528-0.533c1.489,0.498,2.624,0.996,3.654,1.489
			c3.44-0.174,6.704-0.245,9.826-0.174c3.122,0.07,6.136,0.249,8.939,0.533c7.13,0.743,13.161,2.126,18.021,4.078
			c-3.477,0.463-6.953,0.996-10.43,1.489c-3.05-1.205-6.313-2.057-9.719-2.589c-3.406-0.498-7.129-0.673-11.209-0.603
			c3.05,1.563,6.066,3.157,9.046,4.719c2.98,1.559,5.959,3.122,8.939,4.715c6.279-0.14,10.5-0.14,12.733-0.104
			c4.222,0.104,7.947,0.389,11.282,0.816c3.298,0.389,6.313,0.992,9.082,1.738c2.731,0.746,5.036,1.598,6.953,2.589
			c4.15,2.2,5.392,4.327,3.689,6.348c-0.817,1.031-2.342,1.917-4.505,2.628c-2.164,0.743-5.037,1.346-8.584,1.808
			c2.271,1.101,4.646,2.166,7.875,3.157C180.406,215.55,178.348,215.799,176.254,216.048z"/>
	</g>
	<g>
		<path fill-rule="evenodd" clip-rule="evenodd" fill="#F4E597" d="M141.632,186.817c47.783,0,86.521-10.819,86.521-24.196
			c0-13.338-38.737-24.157-86.521-24.157c-47.782,0-86.519,10.819-86.519,24.157C55.113,175.998,93.851,186.817,141.632,186.817z"/>
	</g>
	<g>
		<path fill="#395A7C" d="M141.632,190.736c-44.944,0-90.439-9.649-90.439-28.115c0-18.426,45.496-28.076,90.439-28.076
			c44.945,0,90.441,9.649,90.441,28.076C232.074,181.087,186.578,190.736,141.632,190.736z M141.632,142.387
			c-50.425,0-82.6,11.989-82.6,20.234c0,8.269,32.175,20.273,82.6,20.273c50.427,0,82.603-12.004,82.603-20.273
			C224.235,154.376,192.06,142.387,141.632,142.387z"/>
	</g>
	<g>
		<path fill-rule="evenodd" clip-rule="evenodd" fill="#D1C476" d="M141.811,182.666c42.427,0,76.8-8.977,76.8-20.044
			c0-11.029-34.373-20.005-76.8-20.005c-42.391,0-76.802,8.977-76.802,20.005C65.009,173.689,99.42,182.666,141.811,182.666"/>
	</g>
	<g>
		<path fill-rule="evenodd" clip-rule="evenodd" fill="#D1C476" d="M228.153,162.622c0,13.376-38.737,24.196-86.521,24.196
			c-47.782,0-86.519-10.819-86.519-24.196v20.542c0,13.373,38.737,24.192,86.519,24.192c47.783,0,86.521-10.819,86.521-24.192
			V162.622z"/>
	</g>
	<g>
		<path fill="#395A7C" d="M141.632,211.274c-44.944,0-90.439-9.649-90.439-28.111v-20.542h7.839c0,8.269,32.175,20.273,82.6,20.273
			c50.427,0,82.603-12.004,82.603-20.273h7.839v20.542C232.074,201.625,186.578,211.274,141.632,211.274z M59.032,174.825v8.338
			c0,8.265,32.175,20.273,82.6,20.273c50.427,0,82.603-12.008,82.603-20.273v-8.338C194.4,195.79,88.865,195.79,59.032,174.825z"/>
	</g>
	<g>
		<path fill="#395A7C" d="M169.16,171.384c3.832-0.603,6.102-1.524,6.99-2.764c0.887-1.209,0-2.519-2.626-3.903
			c-2.235-1.17-4.966-1.987-8.265-2.519c-3.264-0.533-8.265-0.712-14.899-0.567c3.086,1.632,6.208,3.261,9.33,4.894
			C162.847,168.157,166.003,169.755,169.16,171.384 M119.32,149.392c-3.938,0.568-6.385,1.384-7.237,2.411
			c-0.886,1.065-0.249,2.165,1.952,3.3c2.163,1.136,5.036,1.987,8.583,2.555c3.512,0.567,8.16,0.816,13.87,0.708
			c-2.837-1.489-5.71-3.013-8.548-4.502C125.103,152.37,122.193,150.881,119.32,149.392z M176.254,177.946
			c-3.191-0.991-5.533-2.057-7.804-3.122c-5.676,0.393-10.677,0.498-15.076,0.323c-4.398-0.179-8.975-0.747-13.798-1.668
			c-4.825-0.96-9.117-2.27-12.948-3.973c3.227-0.567,6.42-1.135,9.577-1.702c4.329,1.702,8.336,2.838,12.096,3.44
			c5.287,0.887,10.182,1.135,14.615,0.852c-3.369-1.738-6.739-3.44-10.038-5.179c-3.3-1.702-6.598-3.444-9.897-5.147
			c-5.143,0.074-10.819-0.035-17.027-0.389c-4.576-0.248-8.833-0.815-12.771-1.703c-3.938-0.851-7.167-1.951-9.721-3.3
			c-4.575-2.375-5.461-4.541-2.696-6.488c0.923-0.641,2.449-1.244,4.647-1.777c2.235-0.533,5.073-1.026,8.514-1.454
			c-1.028-0.533-2.164-1.026-3.583-1.524c2.164-0.179,4.327-0.354,6.528-0.533c1.489,0.498,2.624,0.991,3.654,1.489
			c3.44-0.174,6.704-0.248,9.826-0.174c3.122,0.069,6.136,0.245,8.939,0.528c7.13,0.747,13.161,2.131,18.021,4.047
			c-3.477,0.493-6.953,1.026-10.43,1.523c-3.05-1.205-6.313-2.056-9.719-2.588c-3.406-0.498-7.129-0.673-11.209-0.603
			c3.05,1.559,6.066,3.156,9.046,4.715c2.98,1.563,5.959,3.122,8.939,4.72c6.279-0.14,10.5-0.179,12.733-0.105
			c4.222,0.105,7.947,0.389,11.282,0.817c3.298,0.388,6.313,0.991,9.082,1.738c2.731,0.708,5.036,1.594,6.953,2.589
			c4.15,2.2,5.392,4.327,3.689,6.348c-0.817,1.031-2.342,1.917-4.505,2.625c-2.164,0.746-5.037,1.349-8.584,1.812
			c2.271,1.1,4.646,2.161,7.875,3.157C180.406,177.453,178.348,177.701,176.254,177.946z"/>
	</g>
	<g>
		<path fill-rule="evenodd" clip-rule="evenodd" fill="#F4E597" d="M401.514,321.827c37.674,0,68.181-8.548,68.181-19.05
			c0-10.535-30.507-19.082-68.181-19.082c-37.637,0-68.145,8.547-68.145,19.082C333.369,313.279,363.876,321.827,401.514,321.827z"
			/>
	</g>
	<g>
		<path fill="#395A7C" d="M401.514,325.766c-35.81,0-72.065-7.912-72.065-22.988c0-30.221,144.165-30.221,144.165,0
			C473.613,317.854,437.343,325.766,401.514,325.766z M401.514,287.613c-41.558,0-64.226,10.022-64.226,15.164
			c0,5.145,22.668,15.115,64.226,15.115c41.575,0,64.261-9.971,64.261-15.115C465.774,297.636,443.089,287.613,401.514,287.613z"/>
	</g>
	<g>
		<path fill-rule="evenodd" clip-rule="evenodd" fill="#D1C476" d="M401.656,318.531c33.452,0,60.519-7.061,60.519-15.754
			c0-8.724-27.067-15.782-60.519-15.782c-33.381,0-60.482,7.059-60.482,15.782C341.173,311.471,368.275,318.531,401.656,318.531"/>
	</g>
	<g>
		<path fill-rule="evenodd" clip-rule="evenodd" fill="#D1C476" d="M469.695,302.777c0,10.502-30.507,19.05-68.181,19.05
			c-37.637,0-68.145-8.548-68.145-19.05v16.142c0,10.536,30.507,19.084,68.145,19.084c37.674,0,68.181-8.548,68.181-19.084V302.777z
			"/>
	</g>
	<g>
		<path fill="#395A7C" d="M401.514,341.941c-35.81,0-72.065-7.911-72.065-23.022v-16.142h7.839c0,5.145,22.668,15.115,64.226,15.115
			c41.575,0,64.261-9.971,64.261-15.115h7.839v16.142C473.613,334.03,437.343,341.941,401.514,341.941z M337.288,313.811v5.108
			c0,5.145,22.668,15.149,64.226,15.149c41.575,0,64.261-10.005,64.261-15.149v-5.108
			C440.587,329.564,362.475,329.564,337.288,313.811z"/>
	</g>
	<g>
		<path fill="#395A7C" d="M423.223,309.663c2.98-0.498,4.825-1.209,5.499-2.2c0.675-0.96,0-1.986-2.058-3.052
			c-1.773-0.921-3.902-1.597-6.528-2.021c-2.589-0.39-6.49-0.533-11.74-0.429c2.447,1.279,4.895,2.554,7.379,3.834
			C418.222,307.11,420.704,308.385,423.223,309.663 M383.954,292.313c-3.122,0.429-5.036,1.1-5.711,1.918
			c-0.709,0.815-0.176,1.667,1.526,2.588c1.703,0.887,3.973,1.563,6.776,2.021c2.766,0.428,6.42,0.607,10.961,0.568
			c-2.271-1.205-4.541-2.375-6.776-3.547C388.494,294.658,386.189,293.488,383.954,292.313z M428.829,314.807
			c-2.519-0.746-4.364-1.598-6.173-2.449c-4.468,0.283-8.442,0.389-11.884,0.249c-3.476-0.145-7.094-0.604-10.889-1.314
			c-3.761-0.742-7.167-1.772-10.182-3.12c2.52-0.46,5.037-0.888,7.556-1.347c3.405,1.347,6.562,2.231,9.542,2.729
			c4.152,0.676,8.018,0.887,11.493,0.638c-2.659-1.346-5.285-2.694-7.909-4.043c-2.591-1.384-5.215-2.729-7.804-4.078
			c-4.045,0.069-8.514-0.035-13.411-0.318c-3.618-0.18-6.952-0.642-10.039-1.315c-3.123-0.707-5.676-1.558-7.698-2.623
			c-3.583-1.847-4.292-3.584-2.128-5.108c0.744-0.498,1.951-0.995,3.688-1.419c1.738-0.393,3.974-0.782,6.705-1.136
			c-0.814-0.393-1.703-0.781-2.838-1.204c1.703-0.109,3.443-0.25,5.18-0.393c1.135,0.354,2.021,0.745,2.873,1.17
			c2.697-0.14,5.286-0.21,7.735-0.14c2.447,0.034,4.824,0.174,7.022,0.423c5.641,0.568,10.393,1.668,14.225,3.195
			c-2.767,0.39-5.462,0.777-8.229,1.17c-2.413-0.925-4.967-1.632-7.663-2.021c-2.659-0.393-5.604-0.566-8.797-0.462
			c2.377,1.24,4.754,2.449,7.095,3.688c2.342,1.24,4.683,2.484,7.025,3.725c4.966-0.104,8.299-0.141,10.039-0.069
			c3.333,0.069,6.278,0.283,8.902,0.637c2.626,0.319,5.003,0.782,7.167,1.35c2.129,0.568,3.973,1.275,5.462,2.057
			c3.264,1.737,4.257,3.405,2.91,5.004c-0.639,0.815-1.845,1.489-3.547,2.091c-1.703,0.566-3.938,1.03-6.741,1.418
			c1.774,0.852,3.619,1.703,6.208,2.449C432.093,314.449,430.46,314.627,428.829,314.807z"/>
	</g>
	<g>
		<circle fill-rule="evenodd" clip-rule="evenodd" fill="#F3BE53" cx="245.395" cy="327.966" r="72.581"/>
	</g>
	<g>
		<path fill="#395A7C" d="M245.395,404.483c-42.18,0-76.499-34.338-76.499-76.517c0-42.181,34.319-76.5,76.499-76.5
			c42.178,0,76.499,34.319,76.499,76.5C321.894,370.146,287.572,404.483,245.395,404.483z M245.395,259.309
			c-37.852,0-68.66,30.808-68.66,68.658c0,37.853,30.809,68.642,68.66,68.642c37.849,0,68.66-30.789,68.66-68.642
			C314.054,290.116,283.244,259.309,245.395,259.309z"/>
	</g>
	<g>
		<path fill-rule="evenodd" clip-rule="evenodd" fill="#F4E597" d="M245.395,259.752c37.672,0,68.216,30.54,68.216,68.215
			c0,37.674-30.544,68.218-68.216,68.218c-37.674,0-68.217-30.544-68.217-68.218C177.178,290.292,207.72,259.752,245.395,259.752"/>
	</g>
	<g>
		<path fill-rule="evenodd" clip-rule="evenodd" fill="#D1C476" d="M245.395,271.88c30.968,0,56.083,25.118,56.083,56.087
			c0,30.967-25.115,56.084-56.083,56.084c-30.97,0-56.085-25.117-56.085-56.084C189.309,296.998,214.424,271.88,245.395,271.88"/>
	</g>
	<g>
		<path fill="#395A7C" d="M241.172,353.438l0.603-22.703c-6.97-2.2-12.061-5.393-15.252-9.58c-3.211-4.187-4.72-9.187-4.558-15.04
			c0.16-5.925,2.181-10.818,6.012-14.757c3.832-3.938,8.868-6.1,15.041-6.563l0.16-5.357l7.876,0.214l-0.161,5.357
			c5.729,0.852,10.216,2.942,13.534,6.244c3.333,3.33,5.375,7.696,6.154,13.158l-13.746,1.42c-0.709-4.293-2.821-7.235-6.261-8.869
			l-0.568,21.176c8.585,2.554,14.403,5.785,17.453,9.579c3.015,3.834,4.489,8.657,4.329,14.508
			c-0.178,6.527-2.325,11.993-6.368,16.355c-4.097,4.361-9.666,6.989-16.726,7.768l-0.266,10.146l-7.875-0.213l0.265-9.86
			c-6.189-0.96-11.21-3.37-14.969-7.378c-3.797-4.009-6.154-9.579-7.025-16.744l14.154-1.1c0.515,2.908,1.526,5.392,3.069,7.553
			C237.573,350.883,239.238,352.441,241.172,353.438z M242.698,296.609c-2.146,0.672-3.813,1.843-5.125,3.545
			c-1.332,1.668-1.987,3.584-2.042,5.677c-0.053,1.916,0.46,3.688,1.561,5.392c1.118,1.668,2.785,3.016,5.107,4.117L242.698,296.609
			z M249.012,354.394c2.713-0.423,4.949-1.595,6.704-3.58c1.757-1.952,2.679-4.296,2.751-6.99c0.069-2.414-0.586-4.506-1.987-6.313
			c-1.384-1.776-3.69-3.195-6.883-4.222L249.012,354.394z"/>
	</g>
</g>
</svg>
